<?xml version="1.0" encoding="UTF-8" standalone="no"?>
<svg
   xmlns:dc="http://purl.org/dc/elements/1.1/"
   xmlns:cc="http://creativecommons.org/ns#"
   xmlns:rdf="http://www.w3.org/1999/02/22-rdf-syntax-ns#"
   xmlns:svg="http://www.w3.org/2000/svg"
   xmlns="http://www.w3.org/2000/svg"
   viewBox="0 0 483 277.84"
   height="277.84"
   width="483"
   xml:space="preserve"
   id="svg2"
   version="1.1"><metadata
     id="metadata8"><rdf:RDF><cc:Work
         rdf:about=""><dc:format>image/svg+xml</dc:format><dc:type
           rdf:resource="http://purl.org/dc/dcmitype/StillImage" /></cc:Work></rdf:RDF></metadata><defs
     id="defs6" /><g
     transform="matrix(1.3333333,0,0,-1.3333333,0,277.84)"
     id="g10"><g
       transform="scale(0.1)"
       id="g12"><path
         id="path14"
         style="fill:#f47216;fill-opacity:1;fill-rule:evenodd;stroke:none"
         d="m 2630.46,2068.73 c -16.13,2.79 -18.94,-8.1 -20.78,-15.89 -2.24,-9.52 -2.6,-20.37 0.99,-33.46 9.55,-34.74 88.84,33.02 19.79,49.35" /><path
         id="path16"
         style="fill:#00adef;fill-opacity:1;fill-rule:nonzero;stroke:none"
         d="m 1862.59,1634.31 c -0.92,5.72 -4.23,8.64 -9.95,8.66 -4.17,-0.11 -7.15,-1.89 -8.87,-5.34 -1.76,-3.44 -2.63,-7.11 -2.53,-11.04 -0.1,-3.75 0.75,-7.23 2.53,-10.46 0.9,-1.63 1.99,-2.85 3.39,-3.85 1.39,-1.01 3.14,-1.58 5.19,-1.58 6.27,0.18 9.84,3.57 10.73,10.23 h 12.95 c -2.24,-13.58 -10.1,-20.48 -23.56,-20.62 -7.5,0.06 -13.45,2.5 -17.81,7.35 -4.55,4.68 -6.82,10.87 -6.88,18.47 0,8.06 2.14,14.62 6.49,19.57 4.3,5.02 10.42,7.61 18.49,7.69 5.99,0 11.19,-1.57 15.59,-4.67 4.38,-3.15 6.87,-7.97 7.42,-14.41 h -13.18" /><path
         id="path18"
         style="fill:#00adef;fill-opacity:1;fill-rule:nonzero;stroke:none"
         d="m 1891.02,1626.8 c 0.07,8.17 2.41,14.62 6.99,19.38 4.42,4.73 10.52,7.13 18.32,7.21 7.84,-0.08 14.01,-2.48 18.56,-7.21 4.45,-4.76 6.73,-11.21 6.8,-19.38 -0.07,-8.11 -2.35,-14.52 -6.8,-19.14 -4.55,-4.85 -10.72,-7.29 -18.56,-7.35 -7.8,0.06 -13.9,2.5 -18.32,7.35 -4.58,4.62 -6.92,11.03 -6.99,19.14 z m 13.43,0 v 0 c -0.04,-4.13 0.79,-7.84 2.56,-10.99 1.71,-3.31 4.81,-5.01 9.3,-5.11 4.59,0.1 7.74,1.8 9.42,5.11 1.66,3.15 2.5,6.86 2.5,10.99 0,4.28 -0.84,8.04 -2.5,11.22 -1.68,3.24 -4.83,4.93 -9.42,4.95 -4.49,-0.02 -7.59,-1.71 -9.3,-4.95 -1.77,-3.18 -2.6,-6.94 -2.56,-11.22" /><path
         id="path20"
         style="fill:#00adef;fill-opacity:1;fill-rule:nonzero;stroke:none"
         d="m 2005.14,1601.73 h -12.8 v 6.97 h -0.27 c -1.74,-2.79 -3.93,-4.9 -6.51,-6.24 -2.72,-1.46 -5.55,-2.15 -8.44,-2.15 -6.93,0.06 -11.67,1.97 -14.2,5.76 -2.51,3.77 -3.71,8.78 -3.68,15.12 v 31.01 h 13.46 v -28.58 c -0.1,-8.28 2.73,-12.43 8.64,-12.43 6.97,-0.17 10.43,4.68 10.36,14.48 v 26.53 h 13.44 v -50.47" /><path
         id="path22"
         style="fill:#00adef;fill-opacity:1;fill-rule:nonzero;stroke:none"
         d="m 2024.96,1652.2 h 12.76 v -9.36 h 0.17 c 1.33,3.34 3.48,5.91 6.35,7.79 2.84,1.76 5.94,2.68 9.31,2.76 0.99,0 2,-0.19 2.95,-0.48 v -12.88 c -1.42,0.33 -3.05,0.49 -4.84,0.49 -4.88,-0.11 -8.31,-1.66 -10.29,-4.69 -2.06,-3.04 -3.03,-6.83 -2.96,-11.45 v -22.65 h -13.45 v 50.47" /><path
         id="path24"
         style="fill:#00adef;fill-opacity:1;fill-rule:nonzero;stroke:none"
         d="m 2070.55,1636.52 c 0.66,6.45 3.23,10.88 7.77,13.38 4.5,2.35 9.58,3.53 15.25,3.49 2.54,0 5.05,-0.13 7.57,-0.4 2.55,-0.4 4.85,-1.13 6.9,-2.15 2.13,-1.04 3.87,-2.51 5.11,-4.34 1.28,-1.98 1.92,-4.43 1.92,-7.48 v -26.08 c 0,-2.29 0.15,-4.46 0.44,-6.51 0.23,-2.05 0.67,-3.62 1.26,-4.7 h -13.66 c -0.5,1.57 -0.82,3.15 -0.96,4.83 -2.12,-2.18 -4.64,-3.75 -7.58,-4.75 -2.83,-1.01 -5.79,-1.5 -8.89,-1.5 -4.73,0 -8.67,1.28 -11.72,3.82 -3.23,2.43 -4.86,6.23 -4.91,11.37 0,2.94 0.49,5.3 1.46,7.07 0.92,1.9 2.11,3.43 3.72,4.41 1.62,1.18 3.43,2.02 5.4,2.59 1.95,0.57 3.97,0.99 6.07,1.21 2.14,0.41 4.2,0.75 6.06,1.02 1.88,0.17 3.57,0.41 5.01,0.73 3.15,0.62 4.77,2.22 4.86,4.85 -0.09,2.87 -0.92,4.77 -2.55,5.66 -1.69,0.71 -3.72,1.07 -6.17,1.07 -5.29,0.06 -8.26,-2.41 -8.92,-7.52 z m 31.08,-10.14 v 0 c -1.22,-0.91 -2.85,-1.53 -4.8,-1.91 -2.12,-0.28 -4.23,-0.62 -6.39,-1.02 -2.14,-0.36 -3.98,-1.01 -5.46,-2.05 -1.68,-1.1 -2.51,-2.87 -2.51,-5.4 0.06,-2.45 0.94,-4.17 2.58,-5.07 1.58,-0.87 3.46,-1.36 5.68,-1.36 2.61,0 4.72,0.49 6.28,1.49 1.48,0.77 2.55,1.88 3.17,3.17 0.66,1.31 1.04,2.61 1.26,3.93 0.1,1.33 0.19,2.31 0.19,3.08 v 5.14" /><path
         id="path26"
         style="fill:#00adef;fill-opacity:1;fill-rule:nonzero;stroke:none"
         d="m 2181.26,1604.95 c 0,-2.1 -0.24,-4.4 -0.67,-6.9 -0.53,-2.47 -1.72,-4.97 -3.49,-7.37 -1.79,-2.3 -4.37,-4.2 -7.68,-5.77 -3.33,-1.48 -7.83,-2.25 -13.5,-2.35 -5.07,0 -9.78,1.31 -14.17,3.85 -1.98,1.34 -3.7,3.05 -5.08,5.04 -1.33,2.11 -2.13,4.55 -2.36,7.34 h 13.32 c 0.7,-2.54 1.96,-4.32 3.79,-5.4 1.8,-1.07 3.88,-1.58 6.25,-1.58 3.77,0.08 6.55,1.31 8.35,3.67 1.7,2.18 2.52,5.15 2.47,8.9 v 6.64 h -0.19 c -1.45,-2.63 -3.5,-4.59 -6.15,-5.91 -2.73,-1.26 -5.57,-1.9 -8.57,-1.9 -7.22,0.04 -12.51,2.54 -15.89,7.44 -3.34,4.82 -5,10.75 -5,17.81 0,6.73 1.84,12.56 5.51,17.42 3.54,4.84 8.68,7.38 15.48,7.51 6.5,0.13 11.38,-2.48 14.62,-7.94 h 0.19 v 6.75 h 12.77 z m -24.24,8.63 v 0 c 3.83,0.03 6.68,1.52 8.58,4.38 1.92,2.66 2.89,5.84 2.89,9.55 0,4.24 -0.81,7.85 -2.36,10.91 -1.8,2.98 -4.85,4.53 -9.11,4.55 -3.74,-0.02 -6.49,-1.51 -8.24,-4.28 -1.76,-2.75 -2.64,-6.06 -2.64,-10 -0.04,-3.8 0.74,-7.16 2.36,-10.16 1.61,-3.24 4.46,-4.92 8.52,-4.95" /><path
         id="path28"
         style="fill:#00adef;fill-opacity:1;fill-rule:nonzero;stroke:none"
         d="m 2212.25,1623.6 c 0.48,-8.65 4.5,-12.95 12.02,-12.9 2.78,0 5.16,0.79 7.12,2.24 1.89,1.25 3.05,2.69 3.52,4.42 h 11.84 c -3.99,-11.49 -11.63,-17.17 -22.93,-17.05 -7.75,0.06 -13.81,2.54 -18.15,7.44 -4.52,4.8 -6.8,11.17 -6.85,19.05 0.05,7.74 2.39,14.04 7.02,19.02 4.46,4.96 10.47,7.49 17.98,7.57 8.37,-0.13 14.55,-3.14 18.54,-9.03 1.01,-1.35 1.9,-2.8 2.68,-4.36 0.68,-1.54 1.25,-3.25 1.71,-5.07 0.88,-3.61 1.14,-7.36 0.82,-11.33 z m 21.86,8.79 v 0 c -0.47,3.49 -1.56,6.16 -3.27,8 -1.66,1.74 -4.14,2.58 -7.37,2.58 -2.12,0 -3.88,-0.38 -5.24,-1.08 -1.53,-0.68 -2.68,-1.59 -3.52,-2.69 -1.65,-2.45 -2.46,-4.72 -2.46,-6.81 h 21.86" /><path
         id="path30"
         style="fill:#fbc707;fill-opacity:1;fill-rule:nonzero;stroke:none"
         d="m 2297.83,1634.31 c -0.91,5.72 -4.21,8.64 -9.93,8.66 -4.16,-0.11 -7.13,-1.89 -8.87,-5.34 -1.79,-3.44 -2.61,-7.11 -2.57,-11.04 -0.04,-3.75 0.78,-7.23 2.57,-10.46 0.84,-1.63 2,-2.85 3.4,-3.85 1.4,-1.01 3.11,-1.58 5.19,-1.58 6.24,0.18 9.83,3.57 10.71,10.23 h 12.96 c -2.24,-13.58 -10.12,-20.48 -23.58,-20.62 -7.46,0.06 -13.43,2.5 -17.78,7.35 -4.55,4.68 -6.87,10.87 -6.9,18.47 0,8.06 2.17,14.62 6.51,19.57 4.29,5.02 10.44,7.61 18.48,7.69 5.99,0 11.22,-1.57 15.61,-4.67 4.37,-3.15 6.83,-7.97 7.38,-14.41 h -13.18" /><path
         id="path32"
         style="fill:#fbc707;fill-opacity:1;fill-rule:nonzero;stroke:none"
         d="m 2326.29,1626.8 c 0.05,8.17 2.37,14.62 6.98,19.38 4.41,4.73 10.54,7.13 18.33,7.21 7.82,-0.08 13.98,-2.48 18.53,-7.21 4.5,-4.76 6.76,-11.21 6.8,-19.38 -0.04,-8.11 -2.3,-14.52 -6.8,-19.14 -4.55,-4.85 -10.71,-7.29 -18.53,-7.35 -7.79,0.06 -13.92,2.5 -18.33,7.35 -4.61,4.62 -6.93,11.03 -6.98,19.14 z m 13.41,0 v 0 c -0.04,-4.13 0.82,-7.84 2.56,-10.99 1.7,-3.31 4.78,-5.01 9.3,-5.11 4.58,0.1 7.75,1.8 9.42,5.11 1.67,3.15 2.51,6.86 2.51,10.99 0,4.28 -0.84,8.04 -2.51,11.22 -1.67,3.24 -4.84,4.93 -9.42,4.95 -4.52,-0.02 -7.6,-1.71 -9.3,-4.95 -1.74,-3.18 -2.6,-6.94 -2.56,-11.22" /><path
         id="path34"
         style="fill:#fbc707;fill-opacity:1;fill-rule:nonzero;stroke:none"
         d="m 2394.55,1652.2 h 12.95 v -6.83 h 0.19 c 3.68,5.26 8.84,7.94 15.37,8.02 3.23,0 6.12,-0.62 8.74,-1.83 2.58,-1.42 4.55,-3.63 5.93,-6.6 1.46,2.36 3.52,4.38 6.13,5.99 2.52,1.51 5.54,2.36 9.04,2.44 5.44,0 9.9,-1.37 13.28,-4.01 3.33,-2.84 5.03,-7.52 5.08,-14.02 v -33.63 h -13.45 v 28.49 c 0,1.75 -0.03,3.38 -0.08,4.88 -0.13,1.49 -0.53,2.79 -1.13,3.9 -0.54,1.07 -1.4,1.96 -2.61,2.64 -1.2,0.57 -2.81,0.82 -4.88,0.82 -1.95,0 -3.53,-0.31 -4.73,-1.04 -1.3,-0.67 -2.27,-1.65 -2.99,-2.82 -0.68,-1.2 -1.16,-2.48 -1.43,-3.97 -0.25,-1.64 -0.39,-3.18 -0.39,-4.88 v -28.02 h -13.42 v 28.23 c 0,1.49 0,2.97 0,4.52 -0.06,1.49 -0.35,2.86 -0.89,4.04 -0.46,1.21 -1.29,2.23 -2.49,2.9 -1.2,0.73 -2.96,1.04 -5.23,1.04 -0.72,0 -1.6,-0.07 -2.59,-0.33 -1.14,-0.27 -2.21,-0.83 -3.21,-1.67 -1.01,-0.79 -1.86,-1.94 -2.6,-3.52 -0.8,-1.49 -1.18,-3.51 -1.18,-6.1 v -29.11 h -13.41 v 50.47" /><path
         id="path36"
         style="fill:#fbc707;fill-opacity:1;fill-rule:nonzero;stroke:none"
         d="m 2491.18,1652.2 h 12.75 v -6.41 h 0.2 c 3.49,5.05 8.37,7.6 14.6,7.6 7.62,-0.13 13.27,-2.85 16.92,-8.13 3.56,-5.12 5.32,-11.47 5.32,-18.92 0,-6.95 -1.76,-12.93 -5.3,-17.95 -3.63,-5.22 -9.02,-7.94 -16.16,-8.08 -2.98,0 -5.7,0.69 -8.22,2.06 -2.6,1.3 -4.75,3.14 -6.49,5.52 h -0.18 v -23.92 h -13.44 z m 24.7,-41.5 v 0 c 4.43,0.1 7.48,1.75 9.19,4.98 0.94,1.52 1.58,3.24 1.97,5.14 0.33,1.93 0.5,3.89 0.5,5.84 0,4.16 -0.84,7.97 -2.57,11.29 -1.84,3.21 -4.87,4.91 -9.16,5.02 -4.29,-0.02 -7.31,-1.71 -9.12,-4.95 -1.74,-3.27 -2.56,-7.05 -2.51,-11.36 -0.05,-4.18 0.8,-7.84 2.64,-10.98 1.74,-3.23 4.8,-4.88 9.06,-4.98" /><path
         id="path38"
         style="fill:#fbc707;fill-opacity:1;fill-rule:nonzero;stroke:none"
         d="m 2557.62,1636.52 c 0.66,6.45 3.24,10.88 7.77,13.38 4.51,2.35 9.61,3.53 15.27,3.49 2.53,0 5.04,-0.13 7.54,-0.4 2.53,-0.4 4.86,-1.13 6.91,-2.15 2.15,-1.04 3.88,-2.51 5.13,-4.34 1.26,-1.98 1.92,-4.43 1.92,-7.48 v -26.08 c 0,-2.29 0.12,-4.46 0.44,-6.51 0.25,-2.05 0.67,-3.62 1.26,-4.7 h -13.67 c -0.51,1.57 -0.85,3.15 -0.97,4.83 -2.1,-2.18 -4.65,-3.75 -7.56,-4.75 -2.86,-1.01 -5.79,-1.5 -8.92,-1.5 -4.75,0 -8.64,1.28 -11.72,3.82 -3.22,2.43 -4.84,6.23 -4.91,11.37 0,2.94 0.5,5.3 1.48,7.07 0.89,1.9 2.12,3.43 3.69,4.41 1.65,1.18 3.45,2.02 5.43,2.59 1.95,0.57 3.96,0.99 6.03,1.21 2.18,0.41 4.21,0.75 6.06,1.02 1.91,0.17 3.61,0.41 5.09,0.73 3.14,0.62 4.76,2.22 4.81,4.85 -0.05,2.87 -0.93,4.77 -2.52,5.66 -1.68,0.71 -3.75,1.07 -6.17,1.07 -5.3,0.06 -8.27,-2.41 -8.93,-7.52 z m 31.08,-10.14 v 0 c -1.23,-0.91 -2.82,-1.53 -4.81,-1.91 -2.1,-0.28 -4.21,-0.62 -6.39,-1.02 -2.11,-0.36 -3.96,-1.01 -5.45,-2.05 -1.7,-1.1 -2.52,-2.87 -2.52,-5.4 0.08,-2.45 0.94,-4.17 2.62,-5.07 1.55,-0.87 3.46,-1.36 5.64,-1.36 2.63,0 4.74,0.49 6.28,1.49 1.5,0.77 2.57,1.88 3.19,3.17 0.64,1.31 1.05,2.61 1.24,3.93 0.15,1.33 0.2,2.31 0.2,3.08 v 5.14" /><path
         id="path40"
         style="fill:#fbc707;fill-opacity:1;fill-rule:nonzero;stroke:none"
         d="m 2632.1,1618.07 c 0.19,-3 1.24,-5.13 3.18,-6.44 2.05,-1.36 4.42,-2.06 7.17,-2.06 2.1,-0.09 4.07,0.44 5.89,1.49 1.9,0.9 2.91,2.52 2.97,4.94 0,2.07 -1.28,3.68 -3.88,4.73 -2.75,1.05 -6.52,2.08 -11.38,3.07 -0.97,0.31 -1.87,0.59 -2.76,0.83 -0.94,0.22 -1.88,0.47 -2.86,0.84 -1.88,0.66 -3.55,1.42 -5.01,2.38 -1.45,1.07 -2.63,2.37 -3.46,3.95 -0.97,1.45 -1.46,3.3 -1.46,5.4 0,3.21 0.67,5.9 1.99,8 1.18,2.18 2.79,3.82 4.83,5 1.99,1.21 4.31,2.05 6.79,2.49 2.54,0.45 5.11,0.7 7.68,0.7 5.56,0.04 10.37,-1.12 14.48,-3.33 4.07,-2.4 6.48,-6.67 7.14,-12.79 h -12.82 c -0.23,2.67 -1.18,4.5 -2.8,5.57 -1.75,0.87 -3.85,1.27 -6.37,1.27 -1.58,0 -3.19,-0.29 -4.83,-0.8 -1.69,-0.55 -2.61,-1.89 -2.64,-3.85 0,-1.18 0.44,-2.12 1.31,-2.94 0.89,-0.76 2.07,-1.36 3.51,-1.87 1.44,-0.42 3.1,-0.86 4.94,-1.22 1.8,-0.5 3.59,-0.99 5.46,-1.46 2.08,-0.4 4.02,-0.94 5.9,-1.58 1.88,-0.64 3.51,-1.53 4.97,-2.62 1.44,-1 2.63,-2.36 3.53,-3.97 0.8,-1.6 1.2,-3.58 1.2,-5.94 -0.11,-6.5 -2.43,-11.09 -6.91,-13.73 -4.51,-2.54 -9.67,-3.82 -15.49,-3.82 -5.85,0 -11.05,1.37 -15.55,3.97 -4.5,2.7 -6.98,7.25 -7.54,13.79 h 12.82" /><path
         id="path42"
         style="fill:#fbc707;fill-opacity:1;fill-rule:nonzero;stroke:none"
         d="m 2692.29,1618.07 c 0.2,-3 1.22,-5.13 3.18,-6.44 2.07,-1.36 4.46,-2.06 7.18,-2.06 2.11,-0.09 4.04,0.44 5.89,1.49 1.89,0.9 2.89,2.52 2.98,4.94 0,2.07 -1.3,3.68 -3.9,4.73 -2.74,1.05 -6.55,2.08 -11.36,3.07 -0.95,0.31 -1.89,0.59 -2.8,0.83 -0.92,0.22 -1.86,0.47 -2.81,0.84 -1.89,0.66 -3.56,1.42 -5.04,2.38 -1.45,1.07 -2.61,2.37 -3.47,3.95 -0.94,1.45 -1.46,3.3 -1.46,5.4 0,3.21 0.68,5.9 2.01,8 1.18,2.18 2.79,3.82 4.79,5 2.04,1.21 4.34,2.05 6.85,2.49 2.5,0.45 5.08,0.7 7.67,0.7 5.55,0.04 10.34,-1.12 14.46,-3.33 4.13,-2.4 6.47,-6.67 7.12,-12.79 h -12.78 c -0.22,2.67 -1.17,4.5 -2.85,5.57 -1.72,0.87 -3.8,1.27 -6.33,1.27 -1.59,0 -3.2,-0.29 -4.82,-0.8 -1.72,-0.55 -2.59,-1.89 -2.66,-3.85 0,-1.18 0.42,-2.12 1.29,-2.94 0.92,-0.76 2.08,-1.36 3.54,-1.87 1.42,-0.42 3.08,-0.86 4.98,-1.22 1.73,-0.5 3.55,-0.99 5.45,-1.46 2.03,-0.4 4.01,-0.94 5.86,-1.58 1.86,-0.64 3.53,-1.53 4.98,-2.62 1.43,-1 2.62,-2.36 3.55,-3.97 0.78,-1.6 1.16,-3.58 1.16,-5.94 -0.1,-6.5 -2.41,-11.09 -6.87,-13.73 -4.54,-2.54 -9.67,-3.82 -15.52,-3.82 -5.85,0 -11.05,1.37 -15.54,3.97 -4.49,2.7 -7.01,7.25 -7.52,13.79 h 12.79" /><path
         id="path44"
         style="fill:#fbc707;fill-opacity:1;fill-rule:nonzero;stroke:none"
         d="m 2755.96,1659.98 h -13.44 v 11.47 h 13.44 z m -13.44,-7.78 v 0 h 13.44 v -50.47 h -13.44 v 50.47" /><path
         id="path46"
         style="fill:#fbc707;fill-opacity:1;fill-rule:nonzero;stroke:none"
         d="m 2773.54,1626.8 c 0.06,8.17 2.37,14.62 6.97,19.38 4.46,4.73 10.57,7.13 18.3,7.21 7.84,-0.08 14.04,-2.48 18.57,-7.21 4.48,-4.76 6.72,-11.21 6.81,-19.38 -0.09,-8.11 -2.33,-14.52 -6.81,-19.14 -4.53,-4.85 -10.73,-7.29 -18.57,-7.35 -7.73,0.06 -13.84,2.5 -18.3,7.35 -4.6,4.62 -6.91,11.03 -6.97,19.14 z m 13.43,0 v 0 c -0.07,-4.13 0.77,-7.84 2.55,-10.99 1.69,-3.31 4.78,-5.01 9.27,-5.11 4.61,0.1 7.75,1.8 9.44,5.11 1.66,3.15 2.52,6.86 2.52,10.99 0,4.28 -0.86,8.04 -2.52,11.22 -1.69,3.24 -4.83,4.93 -9.44,4.95 -4.49,-0.02 -7.58,-1.71 -9.27,-4.95 -1.78,-3.18 -2.62,-6.94 -2.55,-11.22" /><path
         id="path48"
         style="fill:#fbc707;fill-opacity:1;fill-rule:nonzero;stroke:none"
         d="m 2842.05,1652.2 h 12.74 v -7.07 h 0.28 c 1.8,2.9 4.04,5.01 6.77,6.38 2.56,1.21 5.29,1.88 8.19,1.88 7.02,-0.08 11.77,-1.93 14.41,-5.62 2.38,-3.73 3.55,-8.75 3.47,-15.13 v -30.91 h -13.44 v 28.41 c 0.15,8.24 -2.7,12.32 -8.56,12.32 -7.08,0.13 -10.57,-4.66 -10.42,-14.41 v -26.32 h -13.44 v 50.47" /><path
         id="path50"
         style="fill:#f47216;fill-opacity:1;fill-rule:nonzero;stroke:none"
         d="m 2940.29,1634.31 c -0.94,5.72 -4.25,8.64 -9.95,8.66 -4.16,-0.11 -7.12,-1.89 -8.89,-5.34 -1.75,-3.44 -2.58,-7.11 -2.54,-11.04 -0.04,-3.75 0.79,-7.23 2.54,-10.46 0.89,-1.63 2.04,-2.85 3.46,-3.85 1.36,-1.01 3.1,-1.58 5.16,-1.58 6.24,0.18 9.84,3.57 10.73,10.23 h 12.93 c -2.24,-13.58 -10.1,-20.48 -23.58,-20.62 -7.48,0.06 -13.43,2.5 -17.79,7.35 -4.53,4.68 -6.85,10.87 -6.88,18.47 0,8.06 2.15,14.62 6.52,19.57 4.29,5.02 10.41,7.61 18.46,7.69 5.97,0 11.22,-1.57 15.6,-4.67 4.39,-3.15 6.83,-7.97 7.4,-14.41 h -13.17" /><path
         id="path52"
         style="fill:#f47216;fill-opacity:1;fill-rule:nonzero;stroke:none"
         d="m 2968.73,1626.8 c 0.06,8.17 2.37,14.62 6.96,19.38 4.45,4.73 10.57,7.13 18.32,7.21 7.86,-0.08 14.04,-2.48 18.56,-7.21 4.47,-4.76 6.76,-11.21 6.8,-19.38 -0.04,-8.11 -2.33,-14.52 -6.8,-19.14 -4.52,-4.85 -10.7,-7.29 -18.56,-7.35 -7.75,0.06 -13.87,2.5 -18.32,7.35 -4.59,4.62 -6.9,11.03 -6.96,19.14 z m 13.45,0 v 0 c -0.1,-4.13 0.77,-7.84 2.52,-10.99 1.7,-3.31 4.8,-5.01 9.3,-5.11 4.6,0.1 7.71,1.8 9.45,5.11 1.65,3.15 2.48,6.86 2.48,10.99 0,4.28 -0.83,8.04 -2.48,11.22 -1.74,3.24 -4.85,4.93 -9.45,4.95 -4.5,-0.02 -7.6,-1.71 -9.3,-4.95 -1.75,-3.18 -2.62,-6.94 -2.52,-11.22" /><path
         id="path54"
         style="fill:#f47216;fill-opacity:1;fill-rule:nonzero;stroke:none"
         d="m 3036.94,1652.2 h 13.01 v -6.83 h 0.19 c 3.71,5.26 8.82,7.94 15.39,8.02 3.2,0 6.13,-0.62 8.7,-1.83 2.62,-1.42 4.59,-3.63 5.96,-6.6 1.45,2.36 3.51,4.38 6.08,5.99 2.56,1.51 5.55,2.36 9.08,2.44 5.44,0 9.87,-1.37 13.27,-4.01 3.31,-2.84 5.05,-7.52 5.11,-14.02 v -33.63 h -13.5 v 28.49 c 0,1.75 -0.01,3.38 -0.08,4.88 -0.13,1.49 -0.49,2.79 -1.11,3.9 -0.52,1.07 -1.38,1.96 -2.59,2.64 -1.21,0.57 -2.84,0.82 -4.89,0.82 -1.97,0 -3.53,-0.31 -4.74,-1.04 -1.28,-0.67 -2.27,-1.65 -2.98,-2.82 -0.68,-1.2 -1.15,-2.48 -1.41,-3.97 -0.28,-1.64 -0.39,-3.18 -0.39,-4.88 v -28.02 h -13.47 v 28.23 c 0,1.49 0,2.97 0,4.52 -0.07,1.49 -0.34,2.86 -0.85,4.04 -0.47,1.21 -1.29,2.23 -2.52,2.9 -1.18,0.73 -2.94,1.04 -5.22,1.04 -0.72,0 -1.56,-0.07 -2.6,-0.33 -1.13,-0.27 -2.22,-0.83 -3.21,-1.67 -0.98,-0.79 -1.83,-1.94 -2.59,-3.52 -0.79,-1.49 -1.18,-3.51 -1.18,-6.1 v -29.11 h -13.46 v 50.47" /><path
         id="path56"
         style="fill:#f47216;fill-opacity:1;fill-rule:nonzero;stroke:none"
         d="m 3133.31,1652.2 h 13.03 v -6.83 h 0.19 c 3.72,5.26 8.83,7.94 15.37,8.02 3.23,0 6.15,-0.62 8.75,-1.83 2.59,-1.42 4.56,-3.63 5.91,-6.6 1.48,2.36 3.54,4.38 6.12,5.99 2.55,1.51 5.55,2.36 9.05,2.44 5.45,0 9.88,-1.37 13.28,-4.01 3.33,-2.84 5.02,-7.52 5.09,-14.02 v -33.63 h -13.43 v 28.49 c 0,1.75 -0.07,3.38 -0.12,4.88 -0.12,1.49 -0.51,2.79 -1.13,3.9 -0.5,1.07 -1.39,1.96 -2.6,2.64 -1.2,0.57 -2.82,0.82 -4.86,0.82 -1.97,0 -3.55,-0.31 -4.77,-1.04 -1.23,-0.67 -2.27,-1.65 -2.96,-2.82 -0.69,-1.2 -1.18,-2.48 -1.41,-3.97 -0.25,-1.64 -0.41,-3.18 -0.41,-4.88 v -28.02 h -13.42 v 28.23 c 0,1.49 0,2.97 0,4.52 -0.08,1.49 -0.38,2.86 -0.88,4.04 -0.49,1.21 -1.3,2.23 -2.51,2.9 -1.2,0.73 -2.95,1.04 -5.22,1.04 -0.73,0 -1.6,-0.07 -2.6,-0.33 -1.13,-0.27 -2.22,-0.83 -3.22,-1.67 -0.95,-0.79 -1.86,-1.94 -2.58,-3.52 -0.78,-1.49 -1.17,-3.51 -1.17,-6.1 v -29.11 h -13.5 v 50.47" /><path
         id="path58"
         style="fill:#f47216;fill-opacity:1;fill-rule:nonzero;stroke:none"
         d="m 3243.67,1659.98 h -13.43 v 11.47 h 13.43 z m -13.43,-7.78 v 0 h 13.43 v -50.47 h -13.43 v 50.47" /><path
         id="path60"
         style="fill:#f47216;fill-opacity:1;fill-rule:nonzero;stroke:none"
         d="m 3279.91,1652.2 h 9.83 v -9.23 h -9.83 v -25.08 c -0.08,-2.29 0.3,-3.87 1.13,-4.69 0.81,-0.86 2.31,-1.24 4.53,-1.24 1.4,0 2.78,0.19 4.17,0.46 v -10.83 c -2.41,-0.32 -4.99,-0.49 -7.84,-0.49 -2.02,0 -3.96,0.23 -5.79,0.63 -1.87,0.21 -3.56,0.75 -5,1.7 -1.45,0.82 -2.56,2.08 -3.32,3.79 -0.88,1.52 -1.33,3.56 -1.33,5.98 v 29.77 h -8.21 v 9.23 h 8.21 v 15.16 h 13.45 v -15.16" /><path
         id="path62"
         style="fill:#f47216;fill-opacity:1;fill-rule:nonzero;stroke:none"
         d="m 3305.61,1652.2 h 13.03 v -6.83 h 0.19 c 3.7,5.26 8.82,7.94 15.36,8.02 3.23,0 6.13,-0.62 8.73,-1.83 2.59,-1.42 4.57,-3.63 5.94,-6.6 1.47,2.36 3.5,4.38 6.08,5.99 2.56,1.51 5.57,2.36 9.09,2.44 5.39,0 9.85,-1.37 13.28,-4.01 3.31,-2.84 5,-7.52 5.06,-14.02 v -33.63 h -13.45 v 28.49 c 0,1.75 -0.02,3.38 -0.08,4.88 -0.13,1.49 -0.52,2.79 -1.11,3.9 -0.54,1.07 -1.42,1.96 -2.61,2.64 -1.21,0.57 -2.83,0.82 -4.88,0.82 -1.95,0 -3.54,-0.31 -4.76,-1.04 -1.26,-0.67 -2.26,-1.65 -2.99,-2.82 -0.66,-1.2 -1.16,-2.48 -1.41,-3.97 -0.24,-1.64 -0.38,-3.18 -0.38,-4.88 v -28.02 h -13.45 v 28.23 c 0,1.49 0,2.97 0,4.52 -0.05,1.49 -0.35,2.86 -0.85,4.04 -0.48,1.21 -1.34,2.23 -2.51,2.9 -1.22,0.73 -2.97,1.04 -5.25,1.04 -0.71,0 -1.56,-0.07 -2.56,-0.33 -1.15,-0.27 -2.23,-0.83 -3.24,-1.67 -0.98,-0.79 -1.86,-1.94 -2.6,-3.52 -0.75,-1.49 -1.17,-3.51 -1.17,-6.1 v -29.11 h -13.46 v 50.47" /><path
         id="path64"
         style="fill:#f47216;fill-opacity:1;fill-rule:nonzero;stroke:none"
         d="m 3413.07,1623.6 c 0.44,-8.65 4.49,-12.95 12.02,-12.9 2.79,0 5.14,0.79 7.12,2.24 1.87,1.25 3.05,2.69 3.51,4.42 h 11.86 c -3.98,-11.49 -11.62,-17.17 -22.94,-17.05 -7.77,0.06 -13.84,2.54 -18.18,7.44 -4.49,4.8 -6.77,11.17 -6.83,19.05 0.06,7.74 2.43,14.04 7.01,19.02 4.49,4.96 10.45,7.49 18,7.57 8.4,-0.13 14.54,-3.14 18.53,-9.03 0.99,-1.35 1.93,-2.8 2.68,-4.36 0.7,-1.54 1.26,-3.25 1.73,-5.07 0.86,-3.61 1.11,-7.36 0.81,-11.33 z m 21.89,8.79 v 0 c -0.5,3.49 -1.6,6.16 -3.28,8 -1.68,1.74 -4.15,2.58 -7.39,2.58 -2.14,0 -3.85,-0.38 -5.24,-1.08 -1.53,-0.68 -2.71,-1.59 -3.52,-2.69 -1.66,-2.45 -2.46,-4.72 -2.46,-6.81 h 21.89" /><path
         id="path66"
         style="fill:#f47216;fill-opacity:1;fill-rule:nonzero;stroke:none"
         d="m 3465.64,1652.2 h 12.79 v -7.07 h 0.23 c 1.81,2.9 4.07,5.01 6.77,6.38 2.56,1.21 5.32,1.88 8.22,1.88 7.01,-0.08 11.78,-1.93 14.36,-5.62 2.44,-3.73 3.58,-8.75 3.54,-15.13 v -30.91 h -13.47 v 28.41 c 0.12,8.24 -2.75,12.32 -8.58,12.32 -7.07,0.13 -10.55,-4.66 -10.43,-14.41 v -26.32 h -13.43 v 50.47" /><path
         id="path68"
         style="fill:#f47216;fill-opacity:1;fill-rule:nonzero;stroke:none"
         d="m 3547.63,1652.2 h 9.87 v -9.23 h -9.87 v -25.08 c -0.06,-2.29 0.31,-3.87 1.17,-4.69 0.81,-0.86 2.3,-1.24 4.51,-1.24 1.4,0 2.78,0.19 4.19,0.46 v -10.83 c -2.43,-0.32 -5.07,-0.49 -7.87,-0.49 -2.03,0 -3.94,0.23 -5.79,0.63 -1.87,0.21 -3.54,0.75 -4.99,1.7 -1.46,0.82 -2.56,2.08 -3.32,3.79 -0.9,1.52 -1.32,3.56 -1.32,5.98 v 29.77 h -8.2 v 9.23 h 8.2 v 15.16 h 13.42 v -15.16" /><path
         id="path70"
         style="fill:#f47216;fill-opacity:1;fill-rule:evenodd;stroke:none"
         d="m 2685.44,1846.62 c 37.32,-15.85 26.92,-37.23 22.05,-43.65 -2.5,-3.22 -2.72,-5.63 1.29,-5.68 28.97,-0.79 38.12,65.38 -23.34,49.33" /><path
         id="path72"
         style="fill:#f47216;fill-opacity:1;fill-rule:evenodd;stroke:none"
         d="m 2729.38,1947.7 c -5.3,15.43 -16.19,12.69 -23.95,10.51 -7.02,-1.91 -14.25,-5.19 -21.56,-10.63 -8.67,-6.53 -10.61,-18.35 -0.89,-28.56 15.49,-16.23 55.58,-24.08 46.4,28.68" /><path
         id="path74"
         style="fill:#f47216;fill-opacity:1;fill-rule:nonzero;stroke:none"
         d="m 2545.55,2037.94 c -8.97,-1.47 -17.93,-4.14 -26.83,-7.98 -8.86,-3.78 -17.91,-8.71 -27.03,-14.89 -35.68,-23.93 -57.98,-52.96 -66.78,-87.22 -8.96,-34.17 -2.68,-67.05 18.47,-98.6 20.93,-31.12 48.49,-49.88 82.55,-56.01 34.16,-6.15 67.37,1.59 99.7,23.31 10.07,6.72 18.75,14.29 26.27,22.76 7.42,8.48 13.98,18.24 19.62,29.36 7.03,-2.37 12.67,-4.85 16.85,-7.43 4.18,-2.53 7.35,-5.43 9.42,-8.52 5.18,-7.78 3.82,-17.52 -4.33,-29.28 -8.13,-11.71 -22.02,-24.14 -41.65,-37.37 -21.2,-14.19 -42.66,-24.41 -64.37,-30.62 -21.76,-6.24 -42.83,-8.24 -63.37,-6.1 -24.86,2.68 -46.98,9.81 -66.42,21.6 -19.39,11.75 -36.05,28.09 -50.02,48.9 -14.77,21.88 -23.43,45.22 -26.02,70.1 -2.59,24.9 0.88,50.98 10.48,78.39 7.11,20.18 18.45,39.72 34.1,58.64 15.5,18.97 33.98,35.53 55.38,49.9 16.55,11.12 29.16,17.54 37.65,19.31 8.58,1.72 15.16,-0.8 19.7,-7.61 1.93,-2.88 3.38,-6.77 4.43,-11.84 1.09,-4.91 1.89,-11.26 2.2,-18.8" /><path
         id="path76"
         style="fill:#00adef;fill-opacity:1;fill-rule:nonzero;stroke:none"
         d="m 2074.09,2012.3 c -8.31,3.86 -17.19,6.62 -26.71,8.5 -9.5,1.76 -19.78,2.7 -30.82,2.7 -42.95,0.11 -77.62,-11.65 -104.08,-35.12 -26.44,-23.38 -39.69,-54.1 -39.72,-92.22 -0.01,-37.53 12.38,-68.46 37.24,-92.55 24.93,-24.24 56.86,-36.33 95.74,-36.36 12.09,0 23.58,1.42 34.56,4.29 10.91,2.88 21.81,7.37 32.67,13.35 4.5,-5.85 7.82,-11.06 9.83,-15.53 2.09,-4.52 3.08,-8.58 3.08,-12.33 0,-9.37 -6.67,-16.63 -19.95,-21.86 -13.29,-5.16 -31.77,-7.8 -55.48,-7.73 -25.5,0 -48.98,3.43 -70.53,10.43 -21.47,6.98 -40.15,17.09 -55.97,30.36 -19.17,16.02 -33.52,34.31 -43.1,54.96 -9.53,20.63 -14.32,43.43 -14.32,68.44 0.06,26.45 5.96,50.73 17.65,72.8 11.69,22.07 29.22,41.82 52.39,59.11 17.23,12.79 37.6,22.8 61.07,29.78 23.49,7 48.16,10.45 73.93,10.42 19.92,0 33.93,-1.64 41.96,-4.97 8.12,-3.33 12.11,-9.1 12.11,-17.25 0,-3.44 -0.94,-7.56 -2.84,-12.26 -1.87,-4.77 -4.81,-10.43 -8.71,-16.96" /><path
         id="path78"
         style="fill:#fbc707;fill-opacity:1;fill-rule:nonzero;stroke:none"
         d="m 2318.51,2025.84 c -9.01,1.66 -18.32,2.18 -27.96,1.57 -9.65,-0.62 -19.86,-2.23 -30.53,-4.93 -41.64,-10.68 -72.41,-30.55 -92.24,-59.79 -19.81,-29.25 -25.02,-62.28 -15.66,-99.11 9.17,-36.34 28.87,-63.24 58.87,-80.45 30.12,-17.25 64.02,-21.09 101.78,-11.54 11.7,2.93 22.44,7.22 32.38,12.61 9.94,5.5 19.42,12.5 28.4,21.05 5.85,-4.63 10.29,-8.87 13.35,-12.63 3.08,-3.79 5.04,-7.53 6.04,-11.19 2.25,-9.02 -2.33,-17.75 -13.96,-26.1 -11.57,-8.26 -28.86,-15.33 -51.84,-21.14 -24.68,-6.33 -48.34,-8.73 -70.89,-7.27 -22.56,1.41 -43.07,6.59 -61.73,15.58 -22.47,10.8 -40.93,24.97 -55.25,42.59 -14.34,17.51 -24.65,38.59 -30.85,62.8 -6.49,25.61 -6.8,50.57 -0.84,74.9 5.88,24.24 17.98,47.65 36.22,70.18 13.53,16.68 30.77,31.26 51.78,43.89 21.01,12.55 44.01,21.96 69.04,28.38 19.33,4.81 33.24,6.64 41.89,5.42 8.65,-1.15 13.96,-5.82 15.97,-13.7 0.86,-3.27 0.95,-7.55 0.34,-12.66 -0.67,-5.1 -2.11,-11.21 -4.31,-18.46" /><path
         id="path80"
         style="fill:#00adef;fill-opacity:1;fill-rule:nonzero;stroke:none"
         d="m 2976.8,2071.78 c 27.09,0 49.21,-15.85 51.05,-35.99 0.1,0.9 0.18,1.76 0.18,2.66 0,21.35 -22.96,38.68 -51.23,38.68 -28.27,0 -51.26,-17.33 -51.26,-38.68 0,-0.9 0.12,-1.76 0.19,-2.66 1.83,20.14 23.98,35.99 51.07,35.99" /><path
         id="path82"
         style="fill:none;stroke:#00adef;stroke-width:13.41399956;stroke-linecap:butt;stroke-linejoin:miter;stroke-miterlimit:2.61313009;stroke-dasharray:none;stroke-opacity:1"
         d="m 2976.8,2071.78 c 27.09,0 49.21,-15.85 51.05,-35.99 0.1,0.9 0.18,1.76 0.18,2.66 0,21.35 -22.96,38.68 -51.23,38.68 -28.27,0 -51.26,-17.33 -51.26,-38.68 0,-0.9 0.12,-1.76 0.19,-2.66 1.83,20.14 23.98,35.99 51.07,35.99 z" /><path
         id="path84"
         style="fill:#fbc707;fill-opacity:1;fill-rule:nonzero;stroke:none"
         d="m 2976.8,2050.99 c 17.84,0 32.38,-10.47 33.59,-23.69 0.06,0.53 0.11,1.16 0.11,1.73 0,14.09 -15.07,25.49 -33.7,25.49 -18.61,0 -33.72,-11.4 -33.72,-25.49 0,-0.57 0.04,-1.2 0.09,-1.73 1.22,13.22 15.76,23.69 33.63,23.69" /><path
         id="path86"
         style="fill:none;stroke:#fbc707;stroke-width:13.41399956;stroke-linecap:butt;stroke-linejoin:miter;stroke-miterlimit:2.61313009;stroke-dasharray:none;stroke-opacity:1"
         d="m 2976.8,2050.99 c 17.84,0 32.38,-10.47 33.59,-23.69 0.06,0.53 0.11,1.16 0.11,1.73 0,14.09 -15.07,25.49 -33.7,25.49 -18.61,0 -33.72,-11.4 -33.72,-25.49 0,-0.57 0.04,-1.2 0.09,-1.73 1.22,13.22 15.76,23.69 33.63,23.69 z" /><path
         id="path88"
         style="fill:#f47216;fill-opacity:1;fill-rule:nonzero;stroke:none"
         d="m 2976.8,2026.93 c 10.89,0 19.79,-6.4 20.5,-14.48 0,0.32 0.05,0.7 0.05,1.09 0,8.57 -9.22,15.49 -20.55,15.49 -11.36,0 -20.6,-6.92 -20.6,-15.49 0,-0.39 0.04,-0.77 0.11,-1.09 0.71,8.08 9.58,14.48 20.49,14.48" /><path
         id="path90"
         style="fill:none;stroke:#f47216;stroke-width:10.68789959;stroke-linecap:butt;stroke-linejoin:miter;stroke-miterlimit:2.61313009;stroke-dasharray:none;stroke-opacity:1"
         d="m 2976.8,2026.93 c 10.89,0 19.79,-6.4 20.5,-14.48 0,0.32 0.05,0.7 0.05,1.09 0,8.57 -9.22,15.49 -20.55,15.49 -11.36,0 -20.6,-6.92 -20.6,-15.49 0,-0.39 0.04,-0.77 0.11,-1.09 0.71,8.08 9.58,14.48 20.49,14.48 z" /><path
         id="path92"
         style="fill:#231f20;fill-opacity:1;fill-rule:nonzero;stroke:none"
         d="m 3016.7,1992.32 h -77.02 c -6.24,0 -11.3,-5.11 -11.3,-11.34 V 1761.2 c 0,-6.24 5.06,-11.3 11.3,-11.3 h 77.02 c 6.27,0 11.33,5.06 11.33,11.3 v 219.78 c 0,6.23 -5.06,11.34 -11.33,11.34 z m -75.12,-37.57 v 0 c 0,6.22 5.08,11.28 11.37,11.28 h 48.35 c 6.28,0 11.37,-5.06 11.37,-11.28 v -48.81 c 0,-6.26 -5.09,-11.31 -11.37,-11.31 h -48.35 c -6.29,0 -11.37,5.05 -11.37,11.31 z m 36.01,-130.01 v 0 c -5.7,0 -10.31,4.64 -10.31,10.31 0,5.7 4.61,10.35 10.31,10.35 5.73,0 10.33,-4.65 10.33,-10.35 0,-5.67 -4.6,-10.31 -10.33,-10.31 z m 10.33,-17.59 v 0 c 0,-5.72 -4.6,-10.26 -10.33,-10.26 -5.7,0 -10.31,4.54 -10.31,10.26 0,5.67 4.61,10.34 10.31,10.34 5.73,0 10.33,-4.67 10.33,-10.34 z m -10.33,45.21 v 0 c -5.7,0 -10.31,4.66 -10.31,10.38 0,5.66 4.61,10.3 10.31,10.3 5.73,0 10.33,-4.64 10.33,-10.3 0,-5.72 -4.6,-10.38 -10.33,-10.38 z m -25.39,-27.62 v 0 c -5.68,0 -10.3,4.64 -10.3,10.31 0,5.7 4.62,10.35 10.3,10.35 5.73,0 10.35,-4.65 10.35,-10.35 0,-5.67 -4.62,-10.31 -10.35,-10.31 z m 10.35,-17.59 v 0 c 0,-5.72 -4.62,-10.26 -10.35,-10.26 -5.68,0 -10.3,4.54 -10.3,10.26 0,5.67 4.62,10.34 10.3,10.34 5.73,0 10.35,-4.67 10.35,-10.34 z m -10.35,45.21 v 0 c -5.68,0 -10.3,4.66 -10.3,10.38 0,5.66 4.62,10.3 10.3,10.3 5.73,0 10.35,-4.64 10.35,-10.3 0,-5.72 -4.62,-10.38 -10.35,-10.38 z m 52.55,-85.5 v 0 h -55.28 c -4.45,0 -8.03,3.62 -8.03,8.02 0,4.45 3.58,8.05 8.03,8.05 h 55.28 c 4.39,0 7.99,-3.6 7.99,-8.05 0,-4.4 -3.6,-8.02 -7.99,-8.02 z m -2.01,30.03 v 0 c -5.73,0 -10.36,4.54 -10.36,10.26 0,5.67 4.63,10.34 10.36,10.34 5.69,0 10.31,-4.67 10.31,-10.34 0,-5.72 -4.62,-10.26 -10.31,-10.26 z m 0,27.85 v 0 c -5.73,0 -10.36,4.64 -10.36,10.31 0,5.7 4.63,10.35 10.36,10.35 5.69,0 10.31,-4.65 10.31,-10.35 0,-5.67 -4.62,-10.31 -10.31,-10.31 z m 0,27.62 v 0 c -5.73,0 -10.36,4.66 -10.36,10.38 0,5.66 4.63,10.3 10.36,10.3 5.69,0 10.31,-4.64 10.31,-10.3 0,-5.72 -4.62,-10.38 -10.31,-10.38" /><path
         id="path94"
         style="fill:#231f20;fill-opacity:1;fill-rule:nonzero;stroke:none"
         d="m 2829.3,2077.13 c 4.05,0 8.39,0 12.86,0 4.51,0 7.89,-1.13 10.08,-3.29 1.56,-2.19 2.41,-5.07 2.59,-8.67 0.15,-3.58 0.21,-7.24 0.21,-11.01 v -41.66 -189.58 -52.41 c 0,-3.74 0,-7.81 0,-12.18 0,-4.4 -0.77,-7.77 -2.36,-10.24 -0.89,-1.61 -2.25,-2.53 -3.98,-2.86 -1.7,-0.31 -3.79,-0.74 -6.3,-1.35 h -6.54 c -3.45,0 -6.73,0.05 -9.83,0.22 -3.15,0.1 -5.49,1.13 -6.99,3.01 -1.6,2.48 -2.43,5.65 -2.62,9.37 -0.13,3.73 -0.23,7.63 -0.23,11.7 v 43.03 194.78 45.84 c 0,3.42 -0.07,7.06 -0.22,11.03 -0.16,3.87 0.53,6.93 2.09,9.09 1.26,1.89 3.61,3.44 7.03,4.7 0.64,0.29 1.31,0.39 2.09,0.24 0.79,-0.19 1.48,-0.09 2.12,0.24" /><path
         id="path96"
         style="fill:#231f20;fill-opacity:1;fill-rule:nonzero;stroke:none"
         d="m 3214.57,1989.58 c 19.63,0.62 35.41,-2.03 47.29,-7.99 11.83,-5.91 21.36,-14.8 28.53,-26.64 1.86,-3.09 3.36,-6.48 4.44,-10.06 1.07,-3.56 2.11,-7.28 3.03,-11.01 1.58,-5.92 2.51,-12.33 2.83,-19.17 0.28,-6.86 0.47,-13.93 0.47,-21.08 v -50.12 -73 c 0,-5.3 -0.11,-10.57 -0.24,-15.9 -0.14,-5.31 -2.3,-8.77 -6.32,-10.25 -1.55,-0.7 -3.22,-1.06 -4.92,-1.25 -1.71,-0.13 -3.51,-0.18 -5.38,-0.18 -4.07,0 -7.96,0.05 -11.72,0.18 -3.74,0.19 -6.39,1.52 -7.92,4 -1.6,2.19 -2.35,5 -2.35,8.41 0,3.48 0,6.9 0,10.32 v 40.27 76.28 c 0,8.45 -0.14,16.78 -0.45,25.07 -0.3,8.25 -1.77,15.36 -4.23,21.25 -2.49,6.21 -6.26,11.33 -11.25,15.22 -4.99,3.96 -10.77,6.93 -17.32,9.14 -1.88,0.61 -3.81,1.03 -5.84,1.14 -2.01,0.17 -3.97,0.59 -5.87,1.21 -1.53,0.3 -3.98,0.43 -7.21,0.22 -3.29,-0.19 -5.58,-0.37 -6.82,-0.69 -1.23,-0.67 -2.38,-0.85 -3.3,-0.74 -0.91,0.17 -2,0.07 -3.25,-0.21 -4.06,-0.93 -7.9,-1.97 -11.47,-3.03 -3.58,-1.12 -6.96,-2.59 -10.04,-4.47 -1.29,-0.61 -2.38,-1.2 -3.33,-1.87 -0.93,-0.59 -2.03,-1.2 -3.24,-1.86 -10.92,-7.85 -18.9,-19.54 -23.86,-35.09 -0.95,-2.52 -1.6,-5.09 -1.86,-7.77 -0.35,-2.62 -0.81,-5.18 -1.44,-7.68 -0.64,-1.58 -0.76,-3.05 -0.44,-4.43 0.28,-1.42 0.16,-2.78 -0.45,-4 v -9.84 c -0.35,-0.92 -0.45,-2.03 -0.29,-3.27 0.18,-1.26 0.29,-2.62 0.29,-4.23 v -14.03 -44.92 -41.22 c 0,-3.41 0,-6.97 0,-10.47 0,-3.61 -0.81,-6.52 -2.35,-8.71 -1.6,-2.48 -4.27,-3.81 -8.22,-4 -3.9,-0.13 -7.87,-0.18 -11.9,-0.18 -2.56,0 -4.85,0.13 -7.04,0.42 -2.2,0.31 -4.08,1.14 -5.64,2.4 -2.48,1.55 -3.75,4.44 -3.75,8.86 0,4.39 0,8.58 0,12.64 v 55.25 113.25 28.61 c 0,2.75 0,5.56 0,8.39 0,2.8 0.64,4.95 1.85,6.55 0.96,1.88 2.51,3.09 4.75,3.67 1.2,0.4 3.03,0.67 5.36,1.01 2.31,0.26 4.74,0.48 7.22,0.48 2.49,0 4.93,-0.22 7.25,-0.48 2.39,-0.34 4.02,-0.78 4.96,-1.4 3.39,-2.23 4.97,-4.94 4.68,-8.19 -0.34,-3.27 0.17,-6.98 1.4,-11.01 0.62,-1.89 1.88,-3.41 3.76,-4.7 3.72,-0.31 6.76,1.08 9.09,4.23 2.35,3.12 4.73,5.61 7.29,7.48 4.33,3.1 8.8,6.02 13.31,8.64 4.5,2.65 9.75,4.95 15.68,6.83 2.51,0.91 5.24,1.53 8.19,1.88 2.95,0.27 5.87,0.77 8.66,1.39 1.57,0.27 3.12,0.45 4.68,0.45 1.56,0 3.12,0 4.7,0" /><path
         id="path98"
         style="fill:#231f20;fill-opacity:1;fill-rule:nonzero;stroke:none"
         d="m 3564.84,1873.96 c 0.65,-3.13 0.74,-6.65 0.27,-10.51 -0.5,-3.91 -1.49,-6.65 -3.06,-8.22 -1.54,-1.27 -3.83,-2.1 -6.77,-2.58 -2.97,-0.4 -6.35,-0.67 -10.09,-0.67 -3.72,0 -7.52,0.08 -11.23,0.27 -3.75,0.11 -7,0.18 -9.82,0.18 H 3404.3 c -2.54,0 -4.97,-0.07 -7.5,-0.18 -2.48,-0.19 -4.49,-0.79 -6.07,-1.7 -1.22,-0.6 -2.5,-1.88 -3.76,-3.76 -0.6,-0.92 -1.23,-2.24 -1.85,-3.93 -0.64,-1.72 -0.64,-3.36 0,-4.96 0.32,-1.53 0.46,-2.95 0.46,-4.19 0,-1.22 0.16,-2.49 0.48,-3.71 0.58,-2.54 1.22,-5.13 1.85,-7.78 0.66,-2.66 1.6,-5.2 2.82,-7.68 7.18,-16.86 19.05,-28.9 35.58,-36.06 1.88,-0.92 3.89,-1.73 6.1,-2.36 2.15,-0.58 4.35,-1.19 6.55,-1.87 0.91,-0.27 2.45,-0.46 4.68,-0.46 4.31,-1.25 10.14,-1.86 17.31,-1.86 7.18,0 12.95,0.61 17.31,1.86 4.34,1.27 8.35,2.55 11.95,4 3.59,1.39 6.93,3.17 10.07,5.37 3.39,2.18 6.39,4.76 8.88,7.73 2.48,2.95 4.66,6.13 6.56,9.62 1.87,3.1 3.5,6.34 4.94,9.79 1.35,3.42 3.79,5.93 7.21,7.52 1.24,0.6 3.28,1.06 6.09,1.42 2.83,0.26 5.61,0.32 8.42,0.17 2.81,-0.14 5.48,-0.36 7.94,-0.7 2.52,-0.29 4.22,-0.89 5.17,-1.87 3.13,-2.14 3.9,-5.72 2.37,-10.73 -2.52,-8.43 -5.8,-15.91 -9.86,-22.47 -6.25,-10.05 -13.33,-18.18 -21.26,-24.57 -8.01,-6.39 -18.04,-11.66 -30.23,-15.72 -3.1,-1.2 -6.27,-2.12 -9.33,-2.58 -3.18,-0.48 -6.42,-0.95 -9.85,-1.62 -1.58,-0.3 -3.06,-0.49 -4.47,-0.49 -1.35,0 -2.89,-0.09 -4.4,-0.47 h -4.69 c -1.56,-0.27 -3.37,-0.42 -5.4,-0.42 -2.03,0 -3.67,0.15 -4.89,0.42 h -4.22 c -1.54,0.38 -3,0.47 -4.22,0.47 -1.27,0 -2.53,0.19 -3.76,0.49 -1.57,0.32 -3.29,0.55 -5.13,0.75 -1.93,0.14 -3.61,0.37 -5.14,0.64 -2.82,0.67 -5.67,1.37 -8.45,2.16 -2.81,0.75 -5.47,1.66 -7.96,2.53 -1.24,0.61 -2.32,1.04 -3.28,1.16 -0.95,0.2 -2.03,0.57 -3.28,1.19 -4.68,2.19 -9.68,4.81 -15,7.94 -9.04,5.96 -16.72,13.15 -23.14,21.78 -6.4,8.56 -11.78,18.23 -16.16,28.81 -1.54,3.42 -2.73,7.03 -3.54,10.73 -0.76,3.77 -1.77,7.5 -2.98,11.22 -0.33,1.26 -0.48,2.36 -0.48,3.28 0,0.95 -0.16,2.22 -0.5,3.75 -0.63,2.55 -1.06,5.17 -1.35,8 -0.35,2.78 -0.81,5.58 -1.47,8.37 v 6.59 c -0.28,1.27 -0.53,3.02 -0.65,5.4 -0.17,2.34 -0.1,4.3 0.23,5.83 v 5.15 c 0.63,1.56 0.84,3.18 0.69,4.97 -0.14,1.63 -0.06,3.31 0.21,4.85 1.28,4.99 2.28,10.01 3.06,15 0.77,4.97 2.1,9.66 4.01,14 1.51,3.46 3,7 4.41,10.6 1.41,3.55 3.08,7.05 4.94,10.54 6.85,10.91 14.64,20.36 23.41,28.3 8.71,7.94 19.49,14.58 32.29,19.89 3.73,1.53 7.54,2.7 11.44,3.53 3.91,0.72 8.05,1.63 12.41,2.54 1.54,0.35 2.95,0.56 4.24,0.71 1.25,0.13 2.62,0.22 4.21,0.22 0.61,0.3 1.38,0.3 2.33,0 0.94,-0.31 1.7,-0.18 2.34,0.47 13.09,0.32 24.5,-1.01 34.19,-3.94 9.67,-3 18.37,-7 26.21,-11.97 1.53,-0.65 2.79,-1.47 3.7,-2.59 0.92,-1.06 2.05,-1.94 3.31,-2.57 2.49,-1.87 5.07,-4.06 7.7,-6.52 2.65,-2.49 4.93,-5.02 6.81,-7.51 4.99,-6.57 9.18,-12.78 12.65,-18.69 2.13,-3.49 3.88,-7.22 5.1,-11.29 1.29,-4.04 2.68,-8.11 4.21,-12.14 1.6,-4.07 2.74,-8.29 3.52,-12.69 0.81,-4.29 1.82,-8.68 3.08,-13.06 0.27,-2.18 0.56,-4.37 0.69,-6.54 0.12,-2.16 0.4,-4.42 0.68,-6.58 z m -45.38,15.92 v 0 c 0.94,1.26 1.7,2.87 2.34,4.93 0.6,2.03 0.6,4.13 0,6.35 -1.88,6.82 -4.52,13.22 -7.98,19.13 -4.34,7.21 -9.21,13.3 -14.49,18.25 -5.29,5.03 -12.15,9.23 -20.57,12.64 -2.22,0.68 -4.38,1.19 -6.57,1.66 -2.22,0.46 -4.52,0.95 -7.02,1.68 -2.5,0.56 -5.17,0.9 -7.97,0.9 -2.83,0 -5.46,0 -7.94,0 -0.94,-0.62 -2.02,-0.9 -3.33,-0.67 -1.19,0.09 -2.29,0.05 -3.23,-0.23 -2.5,-0.73 -4.95,-1.22 -7.28,-1.68 -2.35,-0.47 -4.59,-0.98 -6.77,-1.66 -9.04,-3.68 -16.3,-8.41 -21.8,-14.03 -5.41,-5.62 -10.33,-12.62 -14.73,-21.02 -0.91,-1.63 -1.87,-3.56 -2.78,-5.88 -0.94,-2.31 -1.74,-4.89 -2.37,-7.71 -0.6,-2.81 -0.78,-5.48 -0.46,-7.98 0.32,-2.46 1.4,-4.34 3.28,-5.61 2.52,-1.87 6.79,-2.76 12.87,-2.57 6.08,0.14 11.34,0.23 15.69,0.23 h 71.16 c 4.67,0 10.28,-0.09 16.86,-0.23 6.56,-0.19 10.91,1 13.09,3.5" /><path
         id="path100"
         style="fill:#4f5659;fill-opacity:1;fill-rule:evenodd;stroke:none"
         d="M 623.898,1480.34 H 311.512 L 0.644531,1367.45 V 1077.86 L 196.855,1123.76 V 544.488 L 0.644531,529.91 V 264.691 H 820.441 V 529.91 l -196.543,14.578 v 935.852" /><path
         id="path102"
         style="fill:#52b0e7;fill-opacity:1;fill-rule:evenodd;stroke:none"
         d="m 1273.55,1509.8 c -142.4,0 -294.546,-24.46 -384.706,-53.92 v -314.19 h 237.516 l 11.32,68.75 c 24.54,1.69 49.03,1.58 73.57,1.58 75.47,0.11 104.8,-3.24 104.8,-98.08 v -14.69 c 0,-75.37 -31.13,-90.11 -121.07,-90.11 H 954.52 V 742.531 h 238.82 c 93.38,0 122.71,-19.59 122.71,-96.5 v -13.14 c 0,-93.243 -31.13,-98.141 -103.12,-98.141 -21.27,0 -47.39,0 -75.25,1.609 l -11.32,70.36 H 888.844 V 290.922 c 85.269,-31.012 242.306,-53.973 384.706,-53.973 343.57,0 472.75,114.563 472.75,366.5 v 16.383 c 0,114.457 -39.34,207.809 -129.18,258.469 88.37,54.031 129.18,137.389 129.18,258.549 v 14.61 c 0,256.97 -165.26,358.34 -472.75,358.34" /><path
         id="path104"
         style="fill:#fcc919;fill-opacity:1;fill-rule:evenodd;stroke:none"
         d="m 2208.55,1509.8 c -142.3,0 -294.43,-24.46 -384.54,-53.92 v -314.19 h 237.24 l 11.53,68.75 c 24.49,1.69 49.03,1.58 73.63,1.58 75.25,0.11 104.69,-3.24 104.69,-98.08 v -14.69 c 0,-75.37 -30.96,-90.11 -121.18,-90.11 h -240.4 V 742.531 h 238.82 c 93.32,0 122.76,-19.59 122.76,-96.5 v -13.14 c 0,-93.243 -30.96,-98.141 -103.06,-98.141 -21.27,0 -47.5,0 -75.26,1.609 l -11.53,70.36 H 1824.01 V 290.922 c 85.21,-31.012 242.24,-53.973 384.54,-53.973 343.52,0 472.86,114.563 472.86,366.5 v 16.383 c 0,114.457 -39.34,207.809 -129.34,258.469 88.31,54.031 129.34,137.389 129.34,258.549 v 14.61 c 0,256.97 -165.42,358.34 -472.86,358.34" /><path
         id="path106"
         style="fill:#f57526;fill-opacity:1;fill-rule:evenodd;stroke:none"
         d="m 3149.48,1511.16 c -142.24,0 -294.49,-24.6 -384.6,-54.06 v -314.35 h 237.36 l 11.48,68.81 c 24.48,1.63 49.19,1.63 73.67,1.63 75.31,0 104.69,-3.24 104.69,-98.19 v -14.75 c 0,-75.3 -31.01,-90.03 -121.01,-90.03 H 2830.45 V 743.43 h 238.88 c 93.37,0 122.75,-19.578 122.75,-96.61 v -13.109 c 0,-93.379 -31.01,-98.25 -103.06,-98.25 -21.27,0 -47.39,0 -75.3,1.738 l -11.48,70.332 H 2764.88 V 291.57 c 85.11,-31.039 242.36,-53.922 384.6,-53.922 343.89,0 473.02,114.442 473.02,366.59 v 16.492 c 0,114.461 -39.18,207.782 -129.13,258.52 88.32,54.059 129.13,137.53 129.13,258.63 v 14.75 c 0,257.02 -165.14,358.53 -473.02,358.53" /><path
         id="path108"
         style="fill:#4f5659;fill-opacity:1;fill-rule:nonzero;stroke:none"
         d="M 36.3633,2.76172 0,158.859 H 31.4805 L 54.4375,51.6406 82.2813,158.859 H 118.852 L 145.551,49.8203 168.93,158.859 h 30.957 L 162.898,2.76172 H 130.277 L 99.9453,119.461 69.7109,2.76172 H 36.3633" /><path
         id="path110"
         style="fill:#4f5659;fill-opacity:1;fill-rule:nonzero;stroke:none"
         d="M 219.828,2.76172 V 158.859 h 112.938 v -26.41 H 250.582 V 97.8516 h 76.465 V 71.5391 H 250.582 V 29.0586 h 85.086 V 2.76172 h -115.84" /><path
         id="path112"
         style="fill:#4f5659;fill-opacity:1;fill-rule:nonzero;stroke:none"
         d="M 476.555,2.76172 V 157.582 h 30.75 V 29.0586 h 76.461 V 2.76172 H 476.555" /><path
         id="path114"
         style="fill:#4f5659;fill-opacity:1;fill-rule:nonzero;stroke:none"
         d="M 609.016,2.76172 V 158.859 h 30.75 V 2.76172 h -30.75" /><path
         id="path116"
         style="fill:#4f5659;fill-opacity:1;fill-rule:nonzero;stroke:none"
         d="m 661.27,53.5508 29.918,2.9805 c 1.8,-10.293 5.453,-17.8516 10.96,-22.6719 5.508,-4.8399 12.934,-7.25 22.286,-7.25 9.902,0 17.367,2.1523 22.386,6.4492 5.02,4.293 7.535,9.3125 7.535,15.0625 0,3.6992 -1.058,6.8281 -3.167,9.4297 -2.118,2.5898 -5.801,4.8398 -11.067,6.7578 -3.601,1.2812 -11.808,3.543 -24.625,6.8125 -16.48,4.1875 -28.051,9.3398 -34.695,15.4375 -9.352,8.5898 -14.028,19.0624 -14.028,31.4104 0,7.953 2.196,15.39 6.594,22.312 4.403,6.918 10.738,12.188 19.016,15.809 8.277,3.621 18.265,5.43 29.972,5.43 19.114,0 33.504,-4.29 43.168,-12.891 9.665,-8.578 14.735,-20.047 15.219,-34.379 l -30.754,-1.391 c -1.312,8.02 -4.136,13.789 -8.465,17.313 -4.332,3.508 -10.82,5.258 -19.476,5.258 -8.938,0 -15.934,-1.879 -20.988,-5.641 -3.254,-2.418 -4.883,-5.641 -4.883,-9.687 0,-3.692 1.519,-6.852 4.57,-9.481 3.879,-3.34 13.297,-6.812 28.258,-10.43 14.961,-3.6207 26.023,-7.3707 33.191,-11.2418 7.168,-3.8594 12.782,-9.1601 16.832,-15.8476 4.055,-6.711 6.078,-15 6.078,-24.8711 0,-8.9414 -2.425,-17.3203 -7.273,-25.1211 C 772.984,15.2891 766.129,9.48828 757.266,5.69141 748.398,1.89063 737.348,0 724.121,0 704.867,0 690.078,4.55078 679.762,13.6797 669.438,22.8008 663.277,36.0898 661.27,53.5508" /><path
         id="path118"
         style="fill:#4f5659;fill-opacity:1;fill-rule:nonzero;stroke:none"
         d="M 841.008,2.76172 V 132.449 h -45.195 v 26.41 h 121.035 v -26.41 h -45.09 V 2.76172 h -30.75" /><path
         id="path120"
         style="fill:#4f5659;fill-opacity:1;fill-rule:nonzero;stroke:none"
         d="M 936.688,2.76172 V 158.859 h 112.932 v -26.41 H 967.441 V 97.8516 h 76.469 V 71.5391 H 967.441 V 29.0586 h 85.089 V 2.76172 H 936.688" /><path
         id="path122"
         style="fill:#4f5659;fill-opacity:1;fill-rule:nonzero;stroke:none"
         d="M 1078.92,2.76172 V 158.859 h 29.92 L 1171.18,54.6211 V 158.859 h 28.57 V 2.76172 h -30.86 L 1107.49,104.559 V 2.76172 h -28.57" /><path
         id="path124"
         style="fill:#4f5659;fill-opacity:1;fill-rule:nonzero;stroke:none"
         d="m 1338.45,53.5508 29.91,2.9805 c 1.81,-10.293 5.46,-17.8516 10.97,-22.6719 5.5,-4.8399 12.93,-7.25 22.28,-7.25 9.9,0 17.37,2.1523 22.39,6.4492 5.02,4.293 7.53,9.3125 7.53,15.0625 0,3.6992 -1.06,6.8281 -3.17,9.4297 -2.11,2.5898 -5.8,4.8398 -11.06,6.7578 -3.6,1.2812 -11.81,3.543 -24.62,6.8125 -16.49,4.1875 -28.06,9.3398 -34.7,15.4375 -9.35,8.5898 -14.03,19.0624 -14.03,31.4104 0,7.953 2.2,15.39 6.6,22.312 4.4,6.918 10.73,12.188 19.01,15.809 8.28,3.621 18.27,5.43 29.97,5.43 19.12,0 33.51,-4.29 43.17,-12.891 9.66,-8.578 14.74,-20.047 15.22,-34.379 l -30.75,-1.391 c -1.32,8.02 -4.14,13.789 -8.47,17.313 -4.33,3.508 -10.82,5.258 -19.48,5.258 -8.93,0 -15.93,-1.879 -20.98,-5.641 -3.26,-2.418 -4.89,-5.641 -4.89,-9.687 0,-3.692 1.52,-6.852 4.57,-9.481 3.88,-3.34 13.3,-6.812 28.26,-10.43 14.96,-3.6207 26.03,-7.3707 33.2,-11.2418 7.16,-3.8594 12.77,-9.1601 16.83,-15.8476 4.05,-6.711 6.08,-15 6.08,-24.8711 0,-8.9414 -2.43,-17.3203 -7.28,-25.1211 -4.85,-7.8203 -11.7,-13.62112 -20.57,-17.41799 C 1425.58,1.89063 1414.53,0 1401.3,0 c -19.25,0 -34.04,4.55078 -44.36,13.6797 -10.32,9.1211 -16.49,22.4101 -18.49,39.8711" /><path
         id="path126"
         style="fill:#4f5659;fill-opacity:1;fill-rule:nonzero;stroke:none"
         d="m 1492.2,158.859 h 30.75 V 74.3203 c 0,-13.4219 0.38,-22.1094 1.15,-26.0898 1.31,-6.3907 4.44,-11.5196 9.4,-15.3907 4.95,-3.871 11.72,-5.8007 20.31,-5.8007 8.72,0 15.31,1.832 19.74,5.4804 4.43,3.6602 7.1,8.1524 8,13.4805 0.9,5.3203 1.35,14.1602 1.35,26.5117 v 86.3473 h 30.75 V 76.8711 c 0,-18.7422 -0.83,-31.9805 -2.49,-39.7109 -1.66,-7.75 -4.73,-14.2696 -9.2,-19.5899 -4.46,-5.332 -10.44,-9.5703 -17.92,-12.73046 -7.48,-3.16015 -17.24,-4.738277 -29.29,-4.738277 -14.55,0 -25.58,1.730467 -33.09,5.160157 -7.52,3.44922 -13.46,7.91798 -17.82,13.41798 -4.37,5.5 -7.24,11.2695 -8.63,17.3086 -2.01,8.9414 -3.01,22.1406 -3.01,39.6133 v 83.2574" /><path
         id="path128"
         style="fill:#4f5659;fill-opacity:1;fill-rule:nonzero;stroke:none"
         d="M 1672.56,132.449 V 88.1484 h 16.83 c 12.12,0 20.23,0.8204 24.32,2.461 4.08,1.6289 7.29,4.1797 9.61,7.6601 2.31,3.4805 3.48,7.5315 3.48,12.1405 0,5.68 -1.63,10.36 -4.89,14.051 -3.25,3.687 -7.37,6.008 -12.36,6.93 -3.67,0.711 -11.05,1.058 -22.13,1.058 z M 1641.81,2.76172 V 158.859 h 49.35 c 18.7,0 30.89,-0.777 36.57,-2.347 8.73,-2.34 16.03,-7.43 21.92,-15.274 5.89,-7.847 8.83,-17.976 8.83,-30.398 0,-9.578 -1.69,-17.6486 -5.09,-24.1681 -3.39,-6.5313 -7.7,-11.6602 -12.93,-15.3906 -5.23,-3.7227 -10.55,-6.1915 -15.95,-7.4024 -7.34,-1.4883 -17.97,-2.2383 -31.89,-2.2383 h -20.06 V 2.76172 h -30.75" /><path
         id="path130"
         style="fill:#4f5659;fill-opacity:1;fill-rule:nonzero;stroke:none"
         d="M 1810.22,132.449 V 88.1484 h 16.84 c 12.11,0 20.22,0.8204 24.31,2.461 4.08,1.6289 7.29,4.1797 9.61,7.6601 2.32,3.4805 3.48,7.5315 3.48,12.1405 0,5.68 -1.63,10.36 -4.88,14.051 -3.26,3.687 -7.38,6.008 -12.37,6.93 -3.67,0.711 -11.05,1.058 -22.13,1.058 z M 1779.47,2.76172 V 158.859 h 49.35 c 18.7,0 30.89,-0.777 36.57,-2.347 8.73,-2.34 16.04,-7.43 21.92,-15.274 5.89,-7.847 8.83,-17.976 8.83,-30.398 0,-9.578 -1.69,-17.6486 -5.09,-24.1681 -3.39,-6.5313 -7.7,-11.6602 -12.93,-15.3906 -5.23,-3.7227 -10.55,-6.1915 -15.95,-7.4024 -7.34,-1.4883 -17.97,-2.2383 -31.89,-2.2383 h -20.06 V 2.76172 h -30.75" /><path
         id="path132"
         style="fill:#4f5659;fill-opacity:1;fill-rule:nonzero;stroke:none"
         d="m 1951.1,80.9219 c 0,-17.6836 3.98,-31.0821 11.95,-40.2031 7.96,-9.1172 18.07,-13.6797 30.33,-13.6797 12.26,0 22.32,4.5195 30.18,13.582 7.87,9.0508 11.8,22.6172 11.8,40.7305 0,17.8789 -3.83,31.2304 -11.48,40.0274 -7.66,8.801 -17.82,13.203 -30.5,13.203 -12.67,0 -22.89,-4.453 -30.65,-13.363 -7.75,-8.91 -11.63,-22.3401 -11.63,-40.2971 z m -31.69,-1.0703 c 0,15.8984 2.32,29.2504 6.96,40.0394 3.46,7.949 8.19,15.078 14.19,21.398 5.98,6.32 12.55,11 19.68,14.051 9.49,4.121 20.43,6.18 32.83,6.18 22.44,0 40.4,-7.141 53.87,-21.399 13.47,-14.269 20.21,-34.109 20.21,-59.5194 0,-25.2032 -6.69,-44.9219 -20.06,-59.1524 -13.36,-14.23045 -31.23,-21.347637 -53.6,-21.347637 -22.65,0 -40.66,7.078127 -54.03,21.250037 -13.37,14.1601 -20.05,33.6601 -20.05,58.5" /><path
         id="path134"
         style="fill:#4f5659;fill-opacity:1;fill-rule:nonzero;stroke:none"
         d="m 2117.75,92.8398 h 22.75 c 14.75,0 23.96,0.6485 27.63,1.9219 3.68,1.2696 6.55,3.4688 8.63,6.5973 2.08,3.121 3.11,7.032 3.11,11.723 0,5.25 -1.36,9.488 -4.1,12.719 -2.74,3.219 -6.6,5.258 -11.59,6.121 -2.49,0.359 -9.97,0.527 -22.43,0.527 h -24 z M 2087,2.76172 V 158.859 h 64.72 c 16.27,0 28.1,-1.398 35.48,-4.211 7.38,-2.796 13.28,-7.777 17.71,-14.949 4.44,-7.179 6.65,-15.367 6.65,-24.597 0,-11.711 -3.36,-21.3911 -10.08,-29.02 -6.71,-7.6328 -16.76,-12.4414 -30.12,-14.4336 6.64,-3.9687 12.13,-8.3398 16.46,-13.0976 4.33,-4.75 10.16,-13.1992 17.51,-25.3399 l 18.6,-30.44918 h -36.78 l -22.24,33.96878 c -7.89,12.1406 -13.29,19.7812 -16.2,22.9492 -2.91,3.1523 -6,5.3203 -9.25,6.4922 -3.25,1.1679 -8.42,1.7578 -15.48,1.7578 h -6.23 V 2.76172 H 2087" /><path
         id="path136"
         style="fill:#4f5659;fill-opacity:1;fill-rule:nonzero;stroke:none"
         d="M 2279.09,2.76172 V 132.449 h -45.2 v 26.41 h 121.04 v -26.41 h -45.09 V 2.76172 h -30.75" /><path
         id="path138"
         style="fill:#4f5659;fill-opacity:1;fill-rule:nonzero;stroke:none"
         d="M 2488.74,2.76172 V 158.859 h 112.93 v -26.41 h -82.18 V 97.8516 h 76.47 V 71.5391 h -76.47 V 29.0586 h 85.09 V 2.76172 h -115.84" /><path
         id="path140"
         style="fill:#4f5659;fill-opacity:1;fill-rule:nonzero;stroke:none"
         d="M 2630.25,2.76172 V 158.859 h 46.01 l 27.64,-106.4801 27.33,106.4801 h 46.13 V 2.76172 h -28.58 V 125.629 L 2718.55,2.76172 h -29.61 L 2658.81,125.629 V 2.76172 h -28.56" /><path
         id="path142"
         style="fill:#4f5659;fill-opacity:1;fill-rule:nonzero;stroke:none"
         d="M 2838.65,132.449 V 88.1484 h 16.83 c 12.12,0 20.22,0.8204 24.31,2.461 4.08,1.6289 7.29,4.1797 9.61,7.6601 2.32,3.4805 3.48,7.5315 3.48,12.1405 0,5.68 -1.63,10.36 -4.89,14.051 -3.25,3.687 -7.37,6.008 -12.36,6.93 -3.67,0.711 -11.05,1.058 -22.13,1.058 z M 2807.9,2.76172 V 158.859 h 49.34 c 18.7,0 30.9,-0.777 36.57,-2.347 8.73,-2.34 16.04,-7.43 21.93,-15.274 5.89,-7.847 8.83,-17.976 8.83,-30.398 0,-9.578 -1.7,-17.6486 -5.09,-24.1681 -3.4,-6.5313 -7.71,-11.6602 -12.94,-15.3906 -5.23,-3.7227 -10.54,-6.1915 -15.95,-7.4024 -7.33,-1.4883 -17.97,-2.2383 -31.89,-2.2383 h -20.05 V 2.76172 h -30.75" /><path
         id="path144"
         style="fill:#4f5659;fill-opacity:1;fill-rule:nonzero;stroke:none"
         d="m 2971.02,80.9219 c 0,-17.6836 3.98,-31.0821 11.94,-40.2031 7.97,-9.1172 18.08,-13.6797 30.34,-13.6797 12.26,0 22.32,4.5195 30.18,13.582 7.86,9.0508 11.79,22.6172 11.79,40.7305 0,17.8789 -3.83,31.2304 -11.48,40.0274 -7.65,8.801 -17.82,13.203 -30.49,13.203 -12.67,0 -22.89,-4.453 -30.65,-13.363 -7.75,-8.91 -11.63,-22.3401 -11.63,-40.2971 z m -31.69,-1.0703 c 0,15.8984 2.32,29.2504 6.96,40.0394 3.46,7.949 8.19,15.078 14.18,21.398 5.99,6.32 12.55,11 19.69,14.051 9.48,4.121 20.43,6.18 32.83,6.18 22.43,0 40.39,-7.141 53.87,-21.399 13.47,-14.269 20.21,-34.109 20.21,-59.5194 0,-25.2032 -6.69,-44.9219 -20.05,-59.1524 -13.37,-14.23045 -31.24,-21.347637 -53.62,-21.347637 -22.64,0 -40.65,7.078127 -54.02,21.250037 -13.37,14.1601 -20.05,33.6601 -20.05,58.5" /><path
         id="path146"
         style="fill:#4f5659;fill-opacity:1;fill-rule:nonzero;stroke:none"
         d="M 3132.67,2.76172 3096.3,158.859 h 31.49 l 22.96,-107.2184 27.84,107.2184 h 36.57 l 26.7,-109.0387 23.38,109.0387 h 30.96 L 3259.21,2.76172 h -32.62 L 3196.25,119.461 3166.02,2.76172 h -33.35" /><path
         id="path148"
         style="fill:#4f5659;fill-opacity:1;fill-rule:nonzero;stroke:none"
         d="M 3311.88,2.76172 V 158.859 h 112.93 v -26.41 h -82.18 V 97.8516 h 76.47 V 71.5391 h -76.47 V 29.0586 h 85.09 V 2.76172 h -115.84" /><path
         id="path150"
         style="fill:#4f5659;fill-opacity:1;fill-rule:nonzero;stroke:none"
         d="m 3484.66,92.8398 h 22.76 c 14.74,0 23.95,0.6485 27.62,1.9219 3.68,1.2696 6.56,3.4688 8.63,6.5973 2.08,3.121 3.12,7.032 3.12,11.723 0,5.25 -1.37,9.488 -4.11,12.719 -2.73,3.219 -6.59,5.258 -11.58,6.121 -2.49,0.359 -9.97,0.527 -22.44,0.527 h -24 z M 3453.91,2.76172 V 158.859 h 64.73 c 16.27,0 28.09,-1.398 35.48,-4.211 7.37,-2.796 13.28,-7.777 17.71,-14.949 4.42,-7.179 6.64,-15.367 6.64,-24.597 0,-11.711 -3.36,-21.3911 -10.08,-29.02 -6.72,-7.6328 -16.75,-12.4414 -30.12,-14.4336 6.65,-3.9687 12.14,-8.3398 16.46,-13.0976 4.34,-4.75 10.17,-13.1992 17.51,-25.3399 l 18.59,-30.44918 h -36.77 l -22.23,33.96878 c -7.9,12.1406 -13.3,19.7812 -16.21,22.9492 -2.91,3.1523 -5.99,5.3203 -9.25,6.4922 -3.25,1.1679 -8.41,1.7578 -15.48,1.7578 h -6.23 V 2.76172 h -30.75" /></g></g></svg>