<?xml version="1.0"?><svg width="640" height="480" xmlns="http://www.w3.org/2000/svg">
 <title>Light Red Border Swirl</title>

 <g>
  <title>Layer 1</title>
  <g opacity="0.5" display="inline" id="layer2">
   <path fill="#a71930" fill-rule="evenodd" stroke-miterlimit="4" id="path7339" d="m51.237831,34.64883l11.488548,-2.283531c16.961464,-19.400769 65.722046,-29.466219 103.868073,5.492031l7.501984,-3.410839c-32.229935,-31.608681 -91.476242,-37.574091 -122.858604,0.202339zm-8.054111,35.955807l-1.352699,-7.018936c-54.94608,-18.700493 -17.25165,-63.325171 17.162491,-45.384062l6.534138,-4.406369c-46.616009,-26.64631 -97.752357,34.644099 -22.343929,56.809367zm143.198574,-26.099056l-5.689911,3.035069c88.094879,61.940407 134.709198,-61.22695 223.319977,-11.186398c-87.682343,-57.740742 -135.146088,63.298359 -217.630066,8.151329zm-62.226616,14.85738l1.188492,6.004692c44.862358,-5.159744 97.29792,-66.211133 159.492897,-26.921951l5.276581,-3.676292c-65.85112,-45.32453 -126.58876,19.418209 -165.957977,24.593552l0.000008,0zm-44.794449,-35.7271l-5.617439,4.01786c11.593109,9.60804 11.844627,19.45311 13.511681,35.07589l8.341927,-1.22765c-1.02787,-14.002831 -2.90493,-27.562702 -16.236168,-37.8661zm14.084038,12.43784l1.856903,5.798939c15.788078,4.159389 20.925049,15.173302 16.82135,35.527309l7.287727,-0.323921c4.307861,-21.366756 0.661682,-36.379856 -25.965981,-41.002316l0,-0.000011zm-46.154568,15.966c-3.867081,11.696941 -1.584789,38.082531 34.89735,38.223164l1.340927,-6.012337c-29.675777,-0.941078 -31.421368,-21.558056 -25.622707,-35.987236l-10.61557,3.776421l0,-0.000011zm-30.627239,9.780231c-42.866751,64.692802 119.554955,82.566269 34.144218,180.919052l2.604641,5.809982c95.837528,-101.263855 -66.10823,-126.669922 -29.645519,-182.104172l-7.10334,-4.624863zm90.880836,0.436119c-13.864197,4.042137 -31.71814,5.185753 -46.404057,4.843376l1.385769,5.244614c11.05941,1.179672 36.189209,-1.484138 45.75592,-4.28054l-0.737633,-5.807449zm-19.52137,12.831467c-0.212158,19.408867 1.327583,38.455292 -28.630768,58.822533l4.45771,4.942841c30.216652,-19.071121 31.889931,-36.616081 31.675041,-64.749023l-7.501984,0.98365zm10.981171,8.093521l0.494621,6.380455c50.530807,-11.128906 53.283707,11.141808 44.481049,18.738358c-8.802658,7.59655 -28.98674,1.68483 -26.238831,-17.661217l-7.040428,0.341774c-4.465759,23.278175 23.903435,34.783653 39.694008,22.316284c15.705872,-12.400505 4.025711,-43.156654 -51.390419,-30.115654zm-52.115238,58.995964c-64.404449,50.28154 18.083508,121.089417 17.522671,160.939667c-0.55743,39.606232 -33.66445,55.474945 -34.62369,89.738892c-0.96146,34.342804 27.630209,61.147034 26.431059,71.891937c-1.19915,10.744843 -18.58939,12.003937 -18.280739,-2.225616c-3.877331,18.022034 21.597328,16.805573 21.130669,0.86203c-0.466209,-15.928802 -24.94352,-35.632324 -24.189579,-69.52005c0.76754,-34.498322 33.50383,-44.820435 35.33091,-90.747192c1.82711,-45.926819 -79.037069,-107.336563 -17.667641,-156.950714l-5.65366,-3.988953l0,0zm30.48103,-106.226151c-20.34626,0.0457 -39.29826,7.005318 -49.380018,16.062538l6.866819,4.401222c8.349949,-6.511112 22.62994,-14.928722 45.229347,-14.308182l-2.716148,-6.155579zm536.353195,14.25948c-18.958984,-0.84911 -47.179199,-20.335192 -112.532349,-19.914581c-65.353149,0.420601 -142.275604,48.963627 -195.936371,14.18092l-4.240295,4.075672c57.567596,38.564327 136.312988,-13.37228 200.176666,-13.718441c63.863647,-0.346172 88.565613,16.694538 111.880005,18.06464c23.314453,1.370098 28.030518,-20.525742 -2.086182,-18.11557c26.033447,1.272911 21.697571,16.27647 2.738525,15.427361zm-573.956104,202.401546c0,0 -15.618689,20.842926 -17.054129,32.683716c-1.437731,11.85968 -2.339571,23.007202 10.005781,33.114929c-7.348732,-10.61322 -7.782331,-14.768005 -6.426752,-29.157196c1.3556,-14.389221 17.011442,-30.985229 17.011442,-30.985229l-3.536343,-5.656219z"/>
  </g>
 </g>
</svg>